<svg width="128" height="123" viewBox="0 0 128 123" fill="none" xmlns="http://www.w3.org/2000/svg">
<rect x="0.402405" y="0.4375" width="10.4233" height="10" rx="5" fill="#81818B" fill-opacity="0.2"/>
<rect x="17.0797" y="0.4375" width="10.4233" height="10" rx="5" fill="#81818B" fill-opacity="0.2"/>
<rect x="33.7569" y="0.4375" width="10.4233" height="10" rx="5" fill="#81818B" fill-opacity="0.2"/>
<rect x="50.4341" y="0.4375" width="10.4233" height="10" rx="5" fill="#81818B" fill-opacity="0.2"/>
<rect x="67.1114" y="0.4375" width="10.4233" height="10" rx="5" fill="#81818B" fill-opacity="0.2"/>
<rect x="83.7886" y="0.4375" width="10.4233" height="10" rx="5" fill="#81818B" fill-opacity="0.2"/>
<rect x="100.466" y="0.4375" width="10.4233" height="10" rx="5" fill="#81818B" fill-opacity="0.2"/>
<rect x="117.143" y="0.4375" width="10.4233" height="10" rx="5" fill="#81818B" fill-opacity="0.2"/>
<rect x="0.402405" y="16.4375" width="10.4233" height="10" rx="5" fill="#81818B" fill-opacity="0.2"/>
<rect x="17.0797" y="16.4375" width="10.4233" height="10" rx="5" fill="#81818B" fill-opacity="0.2"/>
<rect x="33.7569" y="16.4375" width="10.4233" height="10" rx="5" fill="#81818B" fill-opacity="0.2"/>
<rect x="50.4341" y="16.4375" width="10.4233" height="10" rx="5" fill="#81818B" fill-opacity="0.2"/>
<rect x="67.1114" y="16.4375" width="10.4233" height="10" rx="5" fill="#81818B" fill-opacity="0.2"/>
<rect x="83.7886" y="16.4375" width="10.4233" height="10" rx="5" fill="#81818B" fill-opacity="0.2"/>
<rect x="100.466" y="16.4375" width="10.4233" height="10" rx="5" fill="#81818B" fill-opacity="0.2"/>
<rect x="117.143" y="16.4375" width="10.4233" height="10" rx="5" fill="#81818B" fill-opacity="0.2"/>
<rect x="0.402405" y="32.4375" width="10.4233" height="10" rx="5" fill="#81818B" fill-opacity="0.2"/>
<rect x="17.0797" y="32.4375" width="10.4233" height="10" rx="5" fill="#81818B" fill-opacity="0.2"/>
<rect x="33.7569" y="32.4375" width="10.4233" height="10" rx="5" fill="#81818B" fill-opacity="0.2"/>
<rect x="50.4341" y="32.4375" width="10.4233" height="10" rx="5" fill="#81818B" fill-opacity="0.2"/>
<rect x="67.1114" y="32.4375" width="10.4233" height="10" rx="5" fill="#81818B" fill-opacity="0.2"/>
<rect x="83.7886" y="32.4375" width="10.4233" height="10" rx="5" fill="#81818B" fill-opacity="0.2"/>
<rect x="100.466" y="32.4375" width="10.4233" height="10" rx="5" fill="#81818B" fill-opacity="0.2"/>
<rect x="117.143" y="32.4375" width="10.4233" height="10" rx="5" fill="#81818B" fill-opacity="0.2"/>
<rect x="0.402405" y="48.4375" width="10.4233" height="10" rx="5" fill="#81818B" fill-opacity="0.2"/>
<rect x="17.0797" y="48.4375" width="10.4233" height="10" rx="5" fill="#81818B" fill-opacity="0.2"/>
<rect x="33.7569" y="48.4375" width="10.4233" height="10" rx="5" fill="#81818B" fill-opacity="0.2"/>
<rect x="50.4341" y="48.4375" width="10.4233" height="10" rx="5" fill="#81818B" fill-opacity="0.2"/>
<rect x="67.1114" y="48.4375" width="10.4233" height="10" rx="5" fill="#81818B" fill-opacity="0.2"/>
<rect x="83.7886" y="48.4375" width="10.4233" height="10" rx="5" fill="#81818B" fill-opacity="0.2"/>
<rect x="100.466" y="48.4375" width="10.4233" height="10" rx="5" fill="#81818B" fill-opacity="0.2"/>
<rect x="117.143" y="48.4375" width="10.4233" height="10" rx="5" fill="#81818B" fill-opacity="0.2"/>
<rect x="0.402405" y="64.4375" width="10.4233" height="10" rx="5" fill="#81818B" fill-opacity="0.2"/>
<rect x="17.0797" y="64.4375" width="10.4233" height="10" rx="5" fill="#81818B" fill-opacity="0.2"/>
<rect x="33.7569" y="64.4375" width="10.4233" height="10" rx="5" fill="#81818B" fill-opacity="0.2"/>
<rect x="50.4341" y="64.4375" width="10.4233" height="10" rx="5" fill="#81818B" fill-opacity="0.2"/>
<rect x="67.1114" y="64.4375" width="10.4233" height="10" rx="5" fill="#81818B" fill-opacity="0.2"/>
<rect x="83.7886" y="64.4375" width="10.4233" height="10" rx="5" fill="#81818B" fill-opacity="0.2"/>
<rect x="100.466" y="64.4375" width="10.4233" height="10" rx="5" fill="#81818B" fill-opacity="0.2"/>
<rect x="117.143" y="64.4375" width="10.4233" height="10" rx="5" fill="#81818B" fill-opacity="0.2"/>
<rect x="0.402405" y="80.4375" width="10.4233" height="10" rx="5" fill="#81818B" fill-opacity="0.2"/>
<rect x="17.0797" y="80.4375" width="10.4233" height="10" rx="5" fill="#81818B" fill-opacity="0.2"/>
<rect x="33.7569" y="80.4375" width="10.4233" height="10" rx="5" fill="#81818B" fill-opacity="0.2"/>
<rect x="50.4341" y="80.4375" width="10.4233" height="10" rx="5" fill="#81818B" fill-opacity="0.2"/>
<rect x="67.1114" y="80.4375" width="10.4233" height="10" rx="5" fill="#81818B" fill-opacity="0.2"/>
<rect x="83.7886" y="80.4375" width="10.4233" height="10" rx="5" fill="#81818B" fill-opacity="0.2"/>
<rect x="100.466" y="80.4375" width="10.4233" height="10" rx="5" fill="#81818B" fill-opacity="0.2"/>
<rect x="117.143" y="80.4375" width="10.4233" height="10" rx="5" fill="#81818B" fill-opacity="0.2"/>
<rect x="0.402405" y="96.4375" width="10.4233" height="10" rx="5" fill="#81818B" fill-opacity="0.2"/>
<rect x="17.0797" y="96.4375" width="10.4233" height="10" rx="5" fill="#81818B" fill-opacity="0.2"/>
<rect x="33.7569" y="96.4375" width="10.4233" height="10" rx="5" fill="#81818B" fill-opacity="0.2"/>
<rect x="50.4341" y="96.4375" width="10.4233" height="10" rx="5" fill="#81818B" fill-opacity="0.2"/>
<rect x="67.1114" y="96.4375" width="10.4233" height="10" rx="5" fill="#81818B" fill-opacity="0.2"/>
<rect x="83.7886" y="96.4375" width="10.4233" height="10" rx="5" fill="#81818B" fill-opacity="0.2"/>
<rect x="100.466" y="96.4375" width="10.4233" height="10" rx="5" fill="#81818B" fill-opacity="0.2"/>
<rect x="117.143" y="96.4375" width="10.4233" height="10" rx="5" fill="#81818B" fill-opacity="0.2"/>
<rect x="0.402405" y="112.438" width="10.4233" height="10" rx="5" fill="#81818B" fill-opacity="0.2"/>
<rect x="17.0797" y="112.438" width="10.4233" height="10" rx="5" fill="#81818B" fill-opacity="0.2"/>
<rect x="33.7569" y="112.438" width="10.4233" height="10" rx="5" fill="#81818B" fill-opacity="0.2"/>
<rect x="50.4341" y="112.438" width="10.4233" height="10" rx="5" fill="#81818B" fill-opacity="0.2"/>
<rect x="67.1114" y="112.438" width="10.4233" height="10" rx="5" fill="#81818B" fill-opacity="0.2"/>
<rect x="83.7886" y="112.438" width="10.4233" height="10" rx="5" fill="#81818B" fill-opacity="0.2"/>
<rect x="100.466" y="112.438" width="10.4233" height="10" rx="5" fill="#81818B" fill-opacity="0.2"/>
<rect x="117.143" y="112.438" width="10.4233" height="10" rx="5" fill="#81818B" fill-opacity="0.2"/>
</svg>
