<svg width="211" height="65" viewBox="0 0 211 65" fill="none" xmlns="http://www.w3.org/2000/svg">
<path d="M29.7857 28.2956C31.9399 26.3337 34.8649 25.1886 37.8296 25.0462C38.8442 25.0462 39.8619 25.0519 40.8766 25.0432C40.8247 26.0809 40.8766 27.1214 40.8461 28.159C40.7029 30.4784 39.804 32.7454 38.2897 34.5649C36.3213 37.0122 33.311 38.6543 30.1147 39.0787C28.7192 39.2938 27.3024 39.1572 25.8978 39.195C25.9221 38.0527 25.846 36.9076 25.9404 35.7682C26.2147 32.9431 27.6132 30.2371 29.7857 28.2956Z" fill="#81818B"/>
<path d="M41.8161 25.0432C42.9039 25.0549 43.9916 25.0374 45.0824 25.049C47.7973 25.2321 50.4756 26.2261 52.5199 27.9498C54.7746 29.7954 56.3196 32.4345 56.7155 35.2538C56.8893 36.5617 56.7795 37.8841 56.8467 39.1978C55.896 39.195 54.9483 39.1921 53.9976 39.1978C51.6608 39.1368 49.3634 38.416 47.4072 37.2011C46.5053 36.5849 45.5791 35.9601 44.9027 35.1055C43.4188 33.5244 42.4103 31.5392 42.0294 29.4466C41.743 27.9933 41.8588 26.511 41.8161 25.0432Z" fill="#81818B"/>
<path d="M25.8998 40.0291C26.8657 40.0813 27.8346 39.9854 28.7974 40.0872C32.92 40.1714 36.9206 42.3804 39.0565 45.7432C40.2814 47.6266 40.9395 49.8589 40.8542 52.0763C40.8511 52.8035 40.8634 53.5269 40.842 54.2509C39.3125 54.2068 37.7676 54.326 36.2533 54.044C32.8895 53.5038 29.7969 51.5939 27.9351 48.8677C26.5244 46.8854 25.8206 44.4644 25.8937 42.0723C25.8937 41.3892 25.8937 40.7091 25.8998 40.0291Z" fill="#81818B"/>
<path d="M51.6984 40.337C53.356 39.9853 55.0649 40.0434 56.7502 40.0434L56.8237 40.1132C56.7869 41.6333 56.9119 43.1708 56.5921 44.6735C55.9186 48.045 53.5786 51.0559 50.431 52.7097C48.4718 53.7506 46.2232 54.2619 43.9837 54.2388C43.2676 54.242 42.5485 54.2273 41.8325 54.2472C41.8325 52.9888 41.7777 51.7248 41.927 50.4717C42.2743 47.4404 43.9928 44.6182 46.4639 42.7116C47.9934 41.5606 49.7911 40.7265 51.6984 40.337Z" fill="#81818B"/>
<path d="M69.3317 48.6211C69.3317 49.1328 69.1459 49.5657 68.7752 49.92C68.424 50.2547 67.9804 50.422 67.4444 50.422C66.9283 50.422 66.4952 50.2547 66.1445 49.92C65.7938 49.5657 65.6184 49.1328 65.6184 48.6211V30.3775C65.6184 29.8658 65.7938 29.4427 66.1445 29.1082C66.5156 28.7539 66.9698 28.5768 67.5063 28.5768C68.0423 28.5768 68.4755 28.7539 68.8057 29.1082C69.1564 29.4427 69.3317 29.8658 69.3317 30.3775V48.6211Z" fill="#81818B"/>
<path d="M84.2375 34.6284C84.7736 34.6284 85.2172 34.8055 85.5684 35.1598C85.9186 35.4943 86.0939 35.9174 86.0939 36.4291V43.9273C86.0939 46.0134 85.4855 47.6665 84.2685 48.8867C83.051 50.1069 81.2975 50.7168 79.0069 50.7168C76.7174 50.7168 74.9634 50.1069 73.7465 48.8867C72.55 47.6665 71.9515 46.0134 71.9515 43.9273V36.4291C71.9515 35.9174 72.1268 35.4943 72.4775 35.1598C72.8282 34.8055 73.2719 34.6284 73.8084 34.6284C74.345 34.6284 74.7881 34.8055 75.1388 35.1598C75.49 35.4943 75.6653 35.9174 75.6653 36.4291V43.9273C75.6653 45.1278 75.9441 46.0232 76.5006 46.6136C77.0576 47.1844 77.8934 47.4697 79.0069 47.4697C80.1425 47.4697 80.9878 47.1844 81.5453 46.6136C82.1018 46.0232 82.3806 45.1278 82.3806 43.9273V36.4291C82.3806 35.9174 82.556 35.4943 82.9067 35.1598C83.2574 34.8055 83.701 34.6284 84.2375 34.6284Z" fill="#81818B"/>
<path d="M97.2634 34.3333C98.914 34.3333 100.131 34.717 100.915 35.4845C101.699 36.2324 102.215 37.2065 102.462 38.407L101.936 38.1413L102.184 37.669C102.431 37.2163 102.813 36.7342 103.329 36.2225C103.845 35.6912 104.464 35.2484 105.186 34.8941C105.928 34.5202 106.754 34.3333 107.662 34.3333C109.147 34.3333 110.271 34.6383 111.035 35.2483C111.819 35.8584 112.355 36.6752 112.644 37.6986C112.933 38.7022 113.077 39.824 113.077 41.0639V48.6211C113.077 49.1328 112.902 49.5656 112.551 49.92C112.2 50.2547 111.757 50.422 111.22 50.422C110.684 50.422 110.24 50.2547 109.89 49.92C109.539 49.5656 109.364 49.1328 109.364 48.6211V41.0639C109.364 40.4144 109.281 39.8339 109.116 39.3221C108.951 38.7908 108.652 38.3677 108.219 38.0528C107.785 37.7379 107.166 37.5804 106.362 37.5804C105.578 37.5804 104.907 37.7379 104.35 38.0528C103.793 38.3677 103.37 38.7908 103.081 39.3221C102.813 39.8339 102.679 40.4144 102.679 41.0639V48.6211C102.679 49.1328 102.503 49.5656 102.153 49.92C101.803 50.2547 101.358 50.422 100.822 50.422C100.286 50.422 99.8422 50.2547 99.492 49.92C99.1408 49.5656 98.9654 49.1328 98.9654 48.6211V41.0639C98.9654 40.4144 98.883 39.8339 98.7176 39.3221C98.5528 38.7908 98.2535 38.3677 97.8204 38.0528C97.3873 37.7379 96.7678 37.5804 95.9635 37.5804C95.1796 37.5804 94.5092 37.7379 93.9517 38.0528C93.3952 38.3677 92.972 38.7908 92.6833 39.3221C92.415 39.8339 92.2811 40.4144 92.2811 41.0639V48.6211C92.2811 49.1328 92.1058 49.5656 91.7551 49.92C91.4038 50.2547 90.9607 50.422 90.4242 50.422C89.8876 50.422 89.4445 50.2547 89.0933 49.92C88.7426 49.5656 88.5673 49.1328 88.5673 48.6211V36.4292C88.5673 35.9175 88.7426 35.4943 89.0933 35.1598C89.4445 34.8055 89.8876 34.6285 90.4242 34.6285C90.9607 34.6285 91.4038 34.8055 91.7551 35.1598C92.1058 35.4943 92.2811 35.9175 92.2811 36.4292V37.6986L91.8165 37.61C92.0023 37.2754 92.2606 36.9211 92.5903 36.5472C92.9206 36.1536 93.3227 35.7895 93.7973 35.455C94.2719 35.1204 94.798 34.8547 95.3755 34.6579C95.9535 34.4415 96.583 34.3333 97.2634 34.3333Z" fill="#81818B"/>
<path d="M119.046 48.6211C119.046 49.1328 118.871 49.5656 118.52 49.92C118.169 50.2547 117.726 50.422 117.189 50.422C116.653 50.422 116.209 50.2547 115.858 49.92C115.508 49.5656 115.333 49.1328 115.333 48.6211V36.4292C115.333 35.9175 115.508 35.4943 115.858 35.1598C116.209 34.8055 116.653 34.6285 117.189 34.6285C117.726 34.6285 118.169 34.8055 118.52 35.1598C118.871 35.4943 119.046 35.9175 119.046 36.4292V48.6211ZM117.158 32.7096C116.457 32.7096 115.962 32.6014 115.672 32.3849C115.384 32.1684 115.24 31.7846 115.24 31.2336V30.6727C115.24 30.102 115.395 29.7182 115.703 29.5214C116.034 29.3049 116.529 29.1967 117.189 29.1967C117.912 29.1967 118.417 29.3049 118.705 29.5214C118.995 29.7379 119.139 30.1217 119.139 30.6727V31.2336C119.139 31.8043 118.984 32.1979 118.674 32.4144C118.366 32.6112 117.86 32.7096 117.158 32.7096Z" fill="#81818B"/>
<path d="M130.166 34.3333C131.693 34.3333 132.848 34.6383 133.632 35.2483C134.437 35.8584 134.984 36.6752 135.272 37.6986C135.582 38.7022 135.736 39.824 135.736 41.0639V48.6211C135.736 49.1328 135.561 49.5656 135.21 49.92C134.86 50.2547 134.416 50.422 133.879 50.422C133.343 50.422 132.9 50.2547 132.549 49.92C132.198 49.5656 132.023 49.1328 132.023 48.6211V41.0639C132.023 40.4144 131.93 39.8339 131.745 39.3221C131.579 38.7908 131.27 38.3677 130.816 38.0528C130.363 37.7379 129.712 37.5804 128.866 37.5804C128.041 37.5804 127.34 37.7379 126.762 38.0528C126.205 38.3677 125.772 38.7908 125.462 39.3221C125.173 39.8339 125.029 40.4144 125.029 41.0639V48.6211C125.029 49.1328 124.854 49.5656 124.503 49.92C124.152 50.2547 123.708 50.422 123.172 50.422C122.636 50.422 122.192 50.2547 121.842 49.92C121.491 49.5656 121.315 49.1328 121.315 48.6211V36.4292C121.315 35.9175 121.491 35.4943 121.842 35.1598C122.192 34.8055 122.636 34.6285 123.172 34.6285C123.708 34.6285 124.152 34.8055 124.503 35.1598C124.854 35.4943 125.029 35.9175 125.029 36.4292V37.6986L124.565 37.61C124.751 37.2754 125.019 36.9211 125.369 36.5472C125.72 36.1536 126.133 35.7895 126.607 35.455C127.082 35.1204 127.618 34.8547 128.216 34.6579C128.815 34.4415 129.465 34.3333 130.166 34.3333Z" fill="#81818B"/>
<path d="M154.11 42.5398C154.11 44.1536 153.728 45.5805 152.965 46.8203C152.222 48.0405 151.211 48.995 149.932 49.6837C148.673 50.3728 147.26 50.7168 145.692 50.7168C144.124 50.7168 142.7 50.3728 141.422 49.6837C140.163 48.995 139.153 48.0405 138.389 46.8203C137.646 45.5805 137.275 44.1536 137.275 42.5398C137.275 40.9261 137.646 39.5091 138.389 38.2889C139.153 37.0491 140.163 36.0848 141.422 35.396C142.7 34.6875 144.124 34.3333 145.692 34.3333C147.26 34.3333 148.673 34.6875 149.932 35.396C151.211 36.0848 152.222 37.0491 152.965 38.2889C153.728 39.5091 154.11 40.9261 154.11 42.5398ZM150.396 42.5398C150.396 41.5362 150.18 40.6703 149.746 39.9421C149.333 39.1942 148.766 38.6137 148.044 38.2004C147.343 37.7871 146.559 37.5804 145.692 37.5804C144.826 37.5804 144.031 37.7871 143.309 38.2004C142.608 38.6137 142.04 39.1942 141.607 39.9421C141.195 40.6703 140.988 41.5362 140.988 42.5398C140.988 43.5239 141.195 44.3898 141.607 45.1377C142.04 45.8658 142.608 46.4365 143.309 46.8498C144.031 47.2632 144.826 47.4697 145.692 47.4697C146.559 47.4697 147.343 47.2632 148.044 46.8498C148.766 46.4365 149.333 45.8658 149.746 45.1377C150.18 44.3898 150.396 43.5239 150.396 42.5398Z" fill="#81818B"/>
<path d="M167.951 34.6284C168.487 34.6284 168.931 34.8055 169.282 35.1598C169.632 35.4943 169.808 35.9174 169.808 36.4291V43.9273C169.808 46.0134 169.199 47.6665 167.982 48.8867C166.764 50.1069 165.011 50.7168 162.721 50.7168C160.431 50.7168 158.677 50.1069 157.46 48.8867C156.263 47.6665 155.665 46.0134 155.665 43.9273V36.4291C155.665 35.9174 155.84 35.4943 156.191 35.1598C156.542 34.8055 156.985 34.6284 157.522 34.6284C158.058 34.6284 158.502 34.8055 158.853 35.1598C159.203 35.4943 159.379 35.9174 159.379 36.4291V43.9273C159.379 45.1278 159.657 46.0232 160.214 46.6136C160.772 47.1844 161.607 47.4697 162.721 47.4697C163.855 47.4697 164.702 47.1844 165.258 46.6136C165.816 46.0232 166.095 45.1278 166.095 43.9273V36.4291C166.095 35.9174 166.27 35.4943 166.62 35.1598C166.971 34.8055 167.415 34.6284 167.951 34.6284Z" fill="#81818B"/>
<path d="M171.321 47.9716C171.115 47.6961 171.022 47.3419 171.043 46.9089C171.064 46.4759 171.332 46.102 171.848 45.7871C172.178 45.5903 172.528 45.5116 172.9 45.551C173.271 45.5707 173.632 45.7477 173.983 46.0823C174.582 46.653 175.211 47.0958 175.871 47.4107C176.531 47.7256 177.356 47.883 178.346 47.883C178.656 47.8633 178.996 47.824 179.368 47.765C179.739 47.6863 180.059 47.5288 180.327 47.2927C180.616 47.0368 180.76 46.653 180.76 46.1413C180.76 45.7084 180.606 45.364 180.296 45.1081C179.987 44.8523 179.574 44.6359 179.058 44.4587C178.563 44.2816 178.006 44.1143 177.387 43.9569C176.747 43.7797 176.087 43.583 175.406 43.3665C174.746 43.15 174.138 42.8745 173.581 42.5398C173.024 42.1856 172.57 41.7232 172.219 41.1524C171.868 40.5817 171.693 39.8633 171.693 38.9975C171.693 38.0134 171.981 37.177 172.559 36.4882C173.137 35.7994 173.88 35.2681 174.787 34.8941C175.716 34.5202 176.685 34.3333 177.697 34.3333C178.336 34.3333 179.006 34.4119 179.708 34.5694C180.409 34.7072 181.08 34.9433 181.72 35.2779C182.359 35.5927 182.896 36.0159 183.329 36.5472C183.556 36.8424 183.69 37.1967 183.731 37.61C183.772 38.0233 183.577 38.3972 183.143 38.7318C182.834 38.9679 182.473 39.0762 182.06 39.0565C181.648 39.0171 181.307 38.8794 181.039 38.6432C180.688 38.2102 180.214 37.8658 179.615 37.61C179.037 37.3542 178.367 37.2262 177.604 37.2262C177.294 37.2262 176.954 37.2656 176.582 37.3443C176.232 37.4033 175.923 37.551 175.654 37.7871C175.386 38.0036 175.252 38.3578 175.252 38.8498C175.252 39.3025 175.406 39.6666 175.716 39.9421C176.025 40.1979 176.438 40.4144 176.954 40.5916C177.49 40.749 178.058 40.9065 178.656 41.0639C179.275 41.2213 179.904 41.4083 180.544 41.6247C181.184 41.8413 181.771 42.1266 182.308 42.4808C182.844 42.8351 183.277 43.2976 183.607 43.8683C183.938 44.4193 184.103 45.1278 184.103 45.9938C184.103 46.9975 183.793 47.8536 183.174 48.562C182.555 49.2706 181.782 49.8117 180.853 50.1857C179.925 50.5401 178.975 50.7168 178.006 50.7168C176.789 50.7168 175.572 50.5204 174.354 50.1267C173.137 49.7132 172.126 48.995 171.321 47.9716Z" fill="#81818B"/>
</svg>
