<svg width="211" height="65" viewBox="0 0 211 65" fill="none" xmlns="http://www.w3.org/2000/svg">
<path d="M23.084 45.3943L34.7436 40.3411L41.4546 44.1308L42.8103 56.564L34.5402 56.4979L35.7604 47.8539L34.3368 47.0561L27.3546 52.3753L23.084 45.3943Z" fill="#81818B"/>
<path d="M42.2007 43.5985L52.5046 50.9783L56.5717 43.8645L48.3014 40.6066V39.0109L56.5717 35.6866L52.5046 28.6389L42.2007 36.019V43.5985Z" fill="#81818B"/>
<path d="M41.4546 35.4209L42.8103 22.9878L34.5402 23.1208L35.7604 31.7641L34.3368 32.5619L27.2868 27.243L23.084 34.1576L34.7436 39.2107L41.4546 35.4209Z" fill="#81818B"/>
<path d="M84.1625 38.2858V49.934H88.6135V35.0895H82.1318V38.2858H84.1625Z" fill="#81818B"/>
<path d="M84.0234 33.0038C84.4313 33.4191 85.0529 33.6267 85.8871 33.6267C86.7224 33.6267 87.334 33.4191 87.723 33.0038C88.1315 32.5702 88.3352 32.0284 88.3352 31.3785C88.3352 30.7102 88.1315 30.1685 87.723 29.7532C87.334 29.3198 86.7224 29.103 85.8871 29.103C85.0529 29.103 84.4313 29.3198 84.0234 29.7532C83.6343 30.1685 83.4396 30.7102 83.4396 31.3785C83.4396 32.0284 83.6343 32.5702 84.0234 33.0038Z" fill="#81818B"/>
<path d="M68.6677 49.6087C69.9287 50.1684 71.477 50.4486 73.3129 50.4486C75.038 50.4486 76.5212 50.1864 77.7644 49.6629C79.007 49.1393 79.962 48.4078 80.6293 47.4686C81.316 46.5115 81.6588 45.401 81.6588 44.1368C81.6588 42.9089 81.3349 41.8705 80.6855 41.0216C80.0544 40.1549 79.174 39.4777 78.0426 38.9902C76.9112 38.4844 75.6035 38.1684 74.1198 38.0422L72.5622 37.9067C71.635 37.8343 70.9672 37.5907 70.5593 37.1752C70.1508 36.7599 69.9471 36.2722 69.9471 35.7126C69.9471 35.279 70.0589 34.8818 70.2805 34.5206C70.5036 34.1414 70.837 33.8434 71.2822 33.6266C71.7463 33.4101 72.3117 33.3017 72.9795 33.3017C73.6841 33.3017 74.2684 33.4279 74.732 33.6809C74.8338 33.7344 74.9309 33.7915 75.0218 33.8521L75.0438 33.8672C75.0779 33.8901 75.1116 33.9139 75.1441 33.9379C75.426 34.1474 75.6502 34.3959 75.8171 34.6832C76.0576 35.0805 76.1789 35.5228 76.1789 36.0105H80.6293C80.6293 34.7101 80.3232 33.5815 79.7116 32.6245C79.1 31.6493 78.219 30.8999 77.0693 30.376C75.9374 29.8343 74.5745 29.5634 72.9795 29.5634C71.4586 29.5634 70.1419 29.8164 69.0289 30.3219C67.9164 30.8096 67.0449 31.5138 66.4144 32.4347C65.8017 33.3557 65.4956 34.4484 65.4956 35.7126C65.4956 37.4642 66.0989 38.8727 67.3043 39.9383C68.5097 41.0037 70.1235 41.6177 72.1448 41.7802L73.6751 41.9157C74.9173 42.0241 75.8171 42.2679 76.3736 42.6469C76.9296 43.0081 77.2079 43.5047 77.2079 44.1368C77.2079 44.4273 77.159 44.6997 77.0614 44.9543C76.9889 45.1433 76.8892 45.3222 76.7632 45.4913C76.4655 45.8703 76.0303 46.1683 75.4554 46.3854C74.8805 46.6019 74.1665 46.7102 73.3129 46.7102C72.3674 46.7102 71.5977 46.584 71.0045 46.3308C70.4107 46.0601 69.966 45.7079 69.6683 45.2748C69.3906 44.8411 69.252 44.3717 69.252 43.8659H64.8284C64.8284 45.1481 65.1528 46.286 65.8017 47.2789C66.4511 48.2543 67.4061 49.0311 68.6677 49.6087Z" fill="#81818B"/>
<path d="M98.5449 50.1233C97.0051 50.1233 95.7629 49.943 94.8169 49.5815C93.8708 49.2025 93.1757 48.5792 92.7305 47.7125C92.3042 46.8275 92.0906 45.6359 92.0906 44.1368V38.2587H89.7816V35.0895H92.0906V31.0806H96.2354V35.0895H100.687V38.2587H96.2354V44.2996C96.2354 45.0038 96.4213 45.5455 96.7919 45.9245C97.1815 46.286 97.7285 46.4664 98.4336 46.4664H100.687V50.1233H98.5449Z" fill="#81818B"/>
<path fill-rule="evenodd" clip-rule="evenodd" d="M106.046 49.7984C107.047 50.2316 108.198 50.4486 109.495 50.4486C110.775 50.4486 111.907 50.2316 112.889 49.7984C113.872 49.3648 114.689 48.7599 115.338 47.9836C115.986 47.2068 116.423 46.3218 116.645 45.3289H112.556C112.37 45.7804 112.018 46.1594 111.499 46.4663C110.979 46.7733 110.311 46.9272 109.495 46.9272C108.99 46.9272 108.538 46.8686 108.14 46.7522C107.837 46.6637 107.566 46.5415 107.325 46.3854C106.769 46.0243 106.361 45.5182 106.101 44.8683C106.029 44.6832 105.968 44.4895 105.916 44.2878C105.863 44.0834 105.82 43.8708 105.788 43.6494H116.923V42.1865C116.923 40.8321 116.626 39.5861 116.033 38.4485C115.439 37.2925 114.577 36.3625 113.446 35.6583C112.333 34.9359 110.961 34.5747 109.328 34.5747C108.086 34.5747 106.973 34.7915 105.99 35.2249C105.026 35.6402 104.219 36.209 103.57 36.9314C102.921 37.6537 102.42 38.4756 102.067 39.3966C101.734 40.2993 101.567 41.2474 101.567 42.2407V42.7824C101.567 43.7397 101.734 44.6786 102.067 45.5997C102.42 46.5026 102.921 47.3241 103.57 48.0646C104.237 48.7872 105.062 49.3648 106.046 49.7984ZM105.865 40.9708C105.877 40.9135 105.89 40.857 105.904 40.8014C105.943 40.6483 105.987 40.5015 106.038 40.3613C106.067 40.2814 106.097 40.2035 106.13 40.1278C106.407 39.4596 106.816 38.954 107.353 38.611C107.554 38.4827 107.772 38.3784 108.006 38.2982C108.4 38.1636 108.841 38.0963 109.328 38.0963C110.089 38.0963 110.719 38.2679 111.22 38.611C111.739 38.9359 112.129 39.4145 112.389 40.0465C112.41 40.0975 112.43 40.1495 112.449 40.202C112.479 40.2858 112.508 40.3717 112.535 40.4598C112.574 40.5909 112.608 40.7266 112.638 40.8668C112.661 40.9702 112.679 41.076 112.696 41.1844H105.822C105.835 41.112 105.849 41.0409 105.865 40.9708Z" fill="#81818B"/>
<path d="M118.76 49.934V35.0895H122.293V38.8282C122.341 38.6059 122.396 38.3926 122.457 38.1881C122.509 38.0157 122.565 37.8495 122.627 37.6899C123.016 36.6785 123.601 35.9202 124.379 35.4144C125.158 34.8907 126.113 34.629 127.245 34.629H127.439C128.59 34.629 129.544 34.8907 130.305 35.4144C131.084 35.9202 131.668 36.6785 132.057 37.6899L132.088 37.7662L132.114 37.836C132.132 37.7867 132.15 37.7381 132.169 37.6899C132.576 36.6785 133.17 35.9202 133.949 35.4144C134.728 34.8907 135.683 34.629 136.815 34.629H137.01C138.159 34.629 139.123 34.8907 139.902 35.4144C140.7 35.9202 141.303 36.6785 141.71 37.6899C142.118 38.7012 142.323 39.9654 142.323 41.4823V49.934H137.872V41.2384C137.872 40.4258 137.649 39.7667 137.204 39.2611C136.777 38.7553 136.165 38.5025 135.368 38.5025C134.57 38.5025 133.94 38.7645 133.476 39.2881C133.013 39.7937 132.781 40.4709 132.781 41.3198V49.934H128.302V41.2384C128.302 40.4258 128.079 39.7667 127.634 39.2611C127.208 38.7553 126.605 38.5025 125.827 38.5025C125.01 38.5025 124.37 38.7645 123.907 39.2881C123.443 39.7937 123.211 40.4709 123.211 41.3198V49.934H118.76Z" fill="#81818B"/>
<path fill-rule="evenodd" clip-rule="evenodd" d="M154.213 47.0736V49.9341H157.746V40.8322C157.746 39.4597 157.467 38.3402 156.911 37.4732C156.354 36.5883 155.539 35.9293 154.463 35.4959C153.406 35.0625 152.099 34.8457 150.54 34.8457C150.203 34.8457 149.851 34.8492 149.483 34.8564C149.266 34.8608 149.043 34.8662 148.816 34.8728C148.204 34.8909 147.61 34.9179 147.036 34.9541L146.596 34.9829C146.37 34.9982 146.159 35.0132 145.959 35.0285C145.81 35.0398 145.667 35.0512 145.534 35.0625V38.7195C146.108 38.6832 146.748 38.6471 147.453 38.6111C147.65 38.601 147.845 38.5916 148.039 38.5829C148.319 38.5703 148.595 38.5593 148.869 38.5498C149.085 38.5421 149.299 38.5353 149.511 38.5297C150.179 38.5116 150.717 38.5026 151.125 38.5026C151.941 38.5026 152.534 38.6922 152.906 39.0715C153.276 39.4507 153.462 40.0196 153.462 40.7782V40.8322H150.707C149.354 40.8322 148.157 41.0038 147.118 41.347C146.08 41.672 145.273 42.1866 144.699 42.8909C144.123 43.5773 143.836 44.4621 143.836 45.5456C143.836 46.5389 144.068 47.3967 144.531 48.1193C144.995 48.8231 145.635 49.3649 146.451 49.7439C147.286 50.1234 148.25 50.3131 149.344 50.3131C150.401 50.3131 151.292 50.1234 152.015 49.7439C152.757 49.3649 153.332 48.8231 153.74 48.1193C153.812 48.0003 153.878 47.8772 153.941 47.7493C154.029 47.5685 154.108 47.3783 154.177 47.1787L154.213 47.0736ZM153.462 44.4351V43.2431H150.68C149.9 43.2431 149.298 43.4327 148.871 43.812C148.464 44.1732 148.259 44.6698 148.259 45.3018C148.259 45.5993 148.31 45.8696 148.412 46.1134C148.514 46.3577 148.667 46.5747 148.871 46.7644C149.298 47.126 149.9 47.3063 150.68 47.3063C150.828 47.3063 150.971 47.2991 151.11 47.2853C151.222 47.2736 151.333 47.2571 151.439 47.236C151.642 47.1958 151.835 47.1376 152.015 47.0624C152.423 46.8821 152.757 46.5841 153.016 46.1684C153.276 45.7532 153.425 45.1751 153.462 44.4351Z" fill="#81818B"/>
<path d="M160.409 49.9341V35.0895H163.943V39.9892C164.112 38.5905 164.538 37.4627 165.222 36.6065C166.15 35.4689 167.484 34.9 169.228 34.9H169.813V38.6381H168.7C167.476 38.6381 166.53 38.9631 165.862 39.6132C165.194 40.2453 164.86 41.1664 164.86 42.3761V49.9341H160.409Z" fill="#81818B"/>
<path d="M175.457 42.9993H176.931L181.744 49.9341H186.751L180.649 41.4174L185.666 35.0896H180.993L175.457 42.1478V30.1595H171.006V49.9341H175.457V42.9993Z" fill="#81818B"/>
</svg>
