<svg width="211" height="65" viewBox="0 0 211 65" fill="none" xmlns="http://www.w3.org/2000/svg">
<path d="M71.1583 30.8004C72.7459 30.8004 74.1199 31.0559 75.2806 31.567C76.4582 32.0781 77.3623 32.8034 77.9938 33.7432C78.6254 34.6829 78.9414 35.7957 78.9414 37.0816C78.9414 38.351 78.6254 39.4638 77.9938 40.42C77.3623 41.3597 76.4582 42.0851 75.2806 42.5964C74.1199 43.0907 72.7459 43.3381 71.1583 43.3381H67.5489V48.1109H63.402V30.8004H71.1583ZM70.9284 40.0738C72.1737 40.0738 73.1213 39.8183 73.7697 39.3072C74.4186 38.7796 74.7425 38.0378 74.7425 37.0816C74.7425 36.1089 74.4186 35.367 73.7697 34.856C73.1213 34.3284 72.1737 34.0647 70.9284 34.0647H67.5489V40.0738H70.9284Z" fill="#81818B"/>
<path d="M84.1552 36.5623C84.6324 35.9194 85.273 35.433 86.0746 35.1033C86.8942 34.7736 87.8323 34.6088 88.8907 34.6088V38.1697C88.4471 38.1368 88.1484 38.1203 87.9945 38.1203C86.8511 38.1203 85.9554 38.4335 85.3071 39.06C84.6582 39.6699 84.3337 40.5932 84.3337 41.8296V48.111H80.3406V34.8066H84.1552V36.5623Z" fill="#81818B"/>
<path d="M96.414 48.3085C94.9634 48.3085 93.6577 48.0203 92.4975 47.4431C91.354 46.8498 90.4579 46.0334 89.8095 44.9948C89.1611 43.9562 88.8367 42.7774 88.8367 41.4587C88.8367 40.1398 89.1611 38.9611 89.8095 37.9224C90.4579 36.8838 91.354 36.076 92.4975 35.499C93.6577 34.9055 94.9634 34.6088 96.414 34.6088C97.8646 34.6088 99.1618 34.9055 100.305 35.499C101.449 36.076 102.345 36.8838 102.994 37.9224C103.642 38.9611 103.966 40.1398 103.966 41.4587C103.966 42.7774 103.642 43.9562 102.994 44.9948C102.345 46.0334 101.449 46.8498 100.305 47.4431C99.1618 48.0203 97.8646 48.3085 96.414 48.3085ZM96.414 45.1432C97.4383 45.1432 98.2746 44.8138 98.923 44.1541C99.5887 43.4783 99.921 42.5799 99.921 41.4587C99.921 40.3377 99.5887 39.4474 98.923 38.7879C98.2746 38.112 97.4383 37.774 96.414 37.774C95.3902 37.774 94.5455 38.112 93.8798 38.7879C93.2141 39.4474 92.8813 40.3377 92.8813 41.4587C92.8813 42.5799 93.2141 43.4783 93.8798 44.1541C94.5455 44.8138 95.3902 45.1432 96.414 45.1432Z" fill="#81818B"/>
<path d="M122.073 30.8004V48.1109H118.668L109.733 37.6009V48.1109H105.637V30.8004H109.067L117.977 41.3103V30.8004H122.073Z" fill="#81818B"/>
<path d="M130.306 34.6088C132.439 34.6088 134.078 35.1033 135.221 36.0925C136.365 37.0652 136.937 38.5407 136.937 40.519V48.111H133.199V46.4539C132.448 47.6905 131.049 48.3085 129.001 48.3085C127.942 48.3085 127.02 48.1357 126.235 47.7894C125.468 47.4431 124.879 46.9652 124.469 46.355C124.06 45.7452 123.855 45.0525 123.855 44.2778C123.855 43.0413 124.333 42.0687 125.288 41.3598C126.261 40.6509 127.755 40.2965 129.769 40.2965H132.943C132.943 39.4556 132.679 38.8127 132.149 38.3676C131.62 37.9059 130.827 37.6751 129.769 37.6751C129.035 37.6751 128.309 37.7905 127.593 38.0214C126.893 38.2357 126.295 38.5325 125.8 38.9116L124.367 36.2161C125.118 35.7051 126.013 35.3094 127.054 35.0291C128.113 34.7489 129.197 34.6088 130.306 34.6088ZM129.999 45.7122C130.682 45.7122 131.288 45.5638 131.816 45.2669C132.345 44.9536 132.721 44.5004 132.943 43.9067V42.547H130.204C128.565 42.547 127.746 43.066 127.746 44.1047C127.746 44.5994 127.942 44.9948 128.335 45.2917C128.744 45.572 129.299 45.7122 129.999 45.7122Z" fill="#81818B"/>
<path d="M148.154 47.4678C147.762 47.7481 147.275 47.9625 146.695 48.1109C146.132 48.2425 145.534 48.3084 144.903 48.3084C143.265 48.3084 141.993 47.9048 141.089 47.0971C140.201 46.289 139.757 45.102 139.757 43.536V38.0708H137.633V35.1033H139.757V31.8638H143.751V35.1033H147.181V38.0708H143.751V43.4865C143.751 44.0469 143.896 44.4839 144.186 44.7972C144.493 45.0937 144.92 45.2421 145.466 45.2421C146.098 45.2421 146.635 45.0772 147.079 44.7478L148.154 47.4678Z" fill="#81818B"/>
<path d="M162.992 34.8066V48.111H159.203V46.5282C158.674 47.105 158.042 47.5503 157.308 47.8637C156.574 48.1605 155.781 48.3085 154.927 48.3085C153.118 48.3085 151.685 47.806 150.626 46.8003C149.568 45.7947 149.039 44.3026 149.039 42.3244V34.8066H153.033V41.7554C153.033 43.8985 153.963 44.9701 155.823 44.9701C156.779 44.9701 157.548 44.6737 158.128 44.0799C158.707 43.4701 158.998 42.5718 158.998 41.3846V34.8066H162.992Z" fill="#81818B"/>
<path d="M169.226 36.5623C169.703 35.9194 170.344 35.433 171.146 35.1033C171.965 34.7736 172.904 34.6088 173.962 34.6088V38.1697C173.518 38.1368 173.219 38.1203 173.066 38.1203C171.922 38.1203 171.026 38.4335 170.378 39.06C169.729 39.6699 169.405 40.5932 169.405 41.8296V48.111H165.411V34.8066H169.226V36.5623Z" fill="#81818B"/>
<path d="M188.423 41.5084C188.423 41.5574 188.398 41.9037 188.346 42.547H177.927C178.114 43.3712 178.558 44.0222 179.258 44.5004C179.958 44.9783 180.828 45.2174 181.869 45.2174C182.586 45.2174 183.217 45.1185 183.763 44.9206C184.327 44.7066 184.848 44.3768 185.325 43.9315L187.45 46.1571C186.153 47.5915 184.258 48.3085 181.766 48.3085C180.214 48.3085 178.84 48.0203 177.645 47.4431C176.45 46.8498 175.529 46.0334 174.88 44.9948C174.232 43.9562 173.908 42.7774 173.908 41.4587C173.908 40.1563 174.223 38.9858 174.855 37.9472C175.503 36.892 176.382 36.076 177.491 35.499C178.618 34.9055 179.872 34.6088 181.255 34.6088C182.603 34.6088 183.823 34.889 184.916 35.4495C186.008 36.01 186.861 36.8179 187.476 37.873C188.107 38.9116 188.423 40.1233 188.423 41.5084ZM181.28 37.5268C180.376 37.5268 179.616 37.774 179.002 38.2686C178.387 38.7633 178.012 39.4392 177.876 40.2965H184.66C184.523 39.4556 184.147 38.7879 183.533 38.2934C182.919 37.7823 182.168 37.5268 181.28 37.5268Z" fill="#81818B"/>
<path fill-rule="evenodd" clip-rule="evenodd" d="M40.658 21.1602C40.0496 20.8201 39.2993 20.8201 38.6908 21.1602C34.3688 23.5752 31.4537 28.0939 31.4537 33.2725C31.4537 34.0105 31.513 34.7352 31.6271 35.4423C28.6518 34.4663 25.4303 34.8214 22.799 36.286C22.19 36.6251 21.8148 37.2526 21.8154 37.9317C21.8185 41.5141 23.7451 45.0055 27.1954 46.9297C28.8881 47.8739 30.7356 48.3225 32.558 48.3233C32.2807 49.0824 32.1298 49.8987 32.1298 50.7493C32.1298 54.7743 35.5076 58.0366 39.6741 58.0366C43.8409 58.0366 47.2184 54.7743 47.2184 50.7493C47.2184 49.8966 47.0669 49.0786 46.7886 48.3184C48.5023 48.266 50.2284 47.8166 51.8179 46.9297C55.2686 45.0055 57.1948 41.5141 57.1974 37.9318C57.1985 37.2528 56.8231 36.6252 56.2141 36.2862C53.6868 34.8792 50.6143 34.4961 47.7391 35.3333C47.842 34.6608 47.8949 33.9727 47.8949 33.2725C47.8949 28.0939 44.9801 23.5752 40.658 21.1602ZM35.3825 33.2725C35.3825 29.9096 37.0681 26.9253 39.6744 25.0677C42.2808 26.9253 43.9664 29.9096 43.9664 33.2725C43.9664 36.6352 42.2808 39.6196 39.6744 41.4771C37.0681 39.6196 35.3825 36.6352 35.3825 33.2725ZM47.4216 39.5744C49.2356 38.5626 51.3318 38.445 53.1628 39.0851C52.8216 40.937 51.6677 42.6315 49.8536 43.6433C48.0396 44.655 45.9435 44.7725 44.1124 44.1327C44.4538 42.2806 45.6075 40.5861 47.4216 39.5744ZM25.8505 39.085C27.6815 38.4448 29.7776 38.5625 31.5917 39.5742C33.4058 40.5859 34.5593 42.2806 34.901 44.1322C33.0699 44.7725 30.9738 44.655 29.1597 43.6433C27.3457 42.6315 26.1921 40.9368 25.8505 39.085ZM36.0586 50.7493C36.0586 48.8205 37.6773 47.2567 39.6741 47.2567C41.671 47.2567 43.2899 48.8205 43.2899 50.7493C43.2899 52.678 41.671 54.2419 39.6741 54.2419C37.6773 54.2419 36.0586 52.678 36.0586 50.7493Z" fill="#81818B"/>
</svg>
