<svg width="211" height="65" viewBox="0 0 211 65" fill="none" xmlns="http://www.w3.org/2000/svg">
<path d="M75.7966 51.8316C73.4399 51.8316 71.3567 51.3567 69.547 50.4079C67.7368 49.4371 66.3377 48.0673 65.3486 46.2989C64.36 44.5302 63.8655 42.4487 63.8655 40.0545C63.8655 37.6603 64.36 35.5789 65.3486 33.8102C66.3377 32.0199 67.7368 30.6503 69.547 29.7012C71.3567 28.7305 73.4399 28.2452 75.7966 28.2452C77.3963 28.2452 78.8059 28.4178 80.0265 28.7629C81.2682 29.0864 82.4043 29.6041 83.4354 30.3159V35.0072C82.5098 34.2308 81.4472 33.67 80.2476 33.3248C79.0689 32.9582 77.7223 32.7748 76.2072 32.7748C74.7976 32.7748 73.5239 33.0768 72.3878 33.6807C71.2727 34.2631 70.3886 35.1043 69.7366 36.2043C69.084 37.3044 68.758 38.5877 68.758 40.0545C68.758 41.5428 69.0525 42.8477 69.6415 43.9694C70.2521 45.0694 71.1042 45.9214 72.1983 46.5253C73.2924 47.1293 74.5555 47.4313 75.9861 47.4313C77.2908 47.4313 78.4269 47.194 79.395 46.7195V42.3516H75.8281V38.728H84.0349V49.6314C81.9517 51.098 79.206 51.8316 75.7966 51.8316Z" fill="#81818B"/>
<path d="M85.1432 35.8161H89.7516V38.0486C90.3622 37.2936 91.2143 36.722 92.3084 36.3338C93.4025 35.924 94.6446 35.7191 96.0333 35.7191V39.4398C94.5811 39.4398 93.2975 39.6663 92.1824 40.1192C91.0878 40.5722 90.3302 41.2624 89.9097 42.1899V51.3463H85.1432V35.8161Z" fill="#81818B"/>
<path d="M105.193 51.8316C102.289 51.8316 100.005 51.1195 98.3432 49.6958C96.6806 48.2511 95.8495 46.2342 95.8495 43.6458C95.8495 41.079 96.5861 39.0515 98.0592 37.5633C99.5534 36.0749 101.679 35.3308 104.435 35.3308C106.245 35.3308 107.781 35.6759 109.044 36.3661C110.306 37.0563 111.264 38.0162 111.916 39.2456C112.569 40.4535 112.895 41.8232 112.895 43.3546V45.3282H100.395C100.731 47.3127 102.541 48.305 105.824 48.305C106.792 48.305 107.792 48.2187 108.823 48.0459C109.854 47.8734 110.748 47.6361 111.506 47.3342V50.764C110.769 51.0871 109.822 51.3462 108.665 51.5405C107.508 51.7342 106.35 51.8316 105.193 51.8316ZM108.381 42.1575C108.318 41.1222 107.939 40.3241 107.245 39.7633C106.55 39.181 105.592 38.8897 104.372 38.8897C103.173 38.8897 102.226 39.181 101.531 39.7633C100.837 40.3457 100.458 41.1438 100.395 42.1575H108.381Z" fill="#81818B"/>
<path d="M122.664 51.8316C119.761 51.8316 117.477 51.1195 115.815 49.6958C114.153 48.2511 113.321 46.2342 113.321 43.6458C113.321 41.079 114.058 39.0515 115.531 37.5633C117.025 36.0749 119.15 35.3308 121.907 35.3308C123.717 35.3308 125.253 35.6759 126.516 36.3661C127.778 37.0563 128.736 38.0162 129.388 39.2456C130.04 40.4535 130.366 41.8232 130.366 43.3546V45.3282H117.866C118.203 47.3127 120.013 48.305 123.296 48.305C124.264 48.305 125.264 48.2187 126.294 48.0459C127.325 47.8734 128.22 47.6361 128.978 47.3342V50.764C128.241 51.0871 127.294 51.3462 126.137 51.5405C124.979 51.7342 123.822 51.8316 122.664 51.8316ZM125.853 42.1575C125.789 41.1222 125.411 40.3241 124.717 39.7633C124.022 39.181 123.065 38.8897 121.844 38.8897C120.644 38.8897 119.698 39.181 119.003 39.7633C118.309 40.3457 117.93 41.1438 117.866 42.1575H125.853Z" fill="#81818B"/>
<path d="M131.425 35.8161H136.032V37.725C136.728 36.927 137.548 36.3338 138.495 35.9455C139.463 35.5357 140.473 35.3308 141.525 35.3308C143.588 35.3308 145.124 35.9024 146.133 37.0456C147.165 38.1672 147.681 39.6878 147.681 41.6075V51.3462H142.914V42.1575C142.914 40.1516 142.009 39.1486 140.199 39.1486C139.4 39.1486 138.653 39.3535 137.958 39.7633C137.264 40.1516 136.675 40.734 136.191 41.5104V51.3462H131.425V35.8161Z" fill="#81818B"/>
<path d="M151.885 33.4219C151.149 33.4219 150.529 33.1739 150.024 32.6777C149.518 32.1817 149.266 31.5561 149.266 30.8012C149.266 30.0679 149.518 29.4531 150.024 28.957C150.529 28.4394 151.149 28.1805 151.885 28.1805C152.622 28.1805 153.243 28.4394 153.748 28.957C154.253 29.4531 154.506 30.0679 154.506 30.8012C154.506 31.5561 154.253 32.1817 153.748 32.6777C153.243 33.1739 152.622 33.4219 151.885 33.4219ZM149.487 35.8161H154.285V51.3462H149.487V35.8161Z" fill="#81818B"/>
<path d="M162.414 51.8316C161.278 51.8316 160.057 51.7018 158.752 51.4431C157.469 51.2059 156.459 50.8608 155.722 50.4079V46.5901C156.564 47.1077 157.574 47.5283 158.752 47.8518C159.931 48.1752 161.025 48.337 162.035 48.337C162.898 48.337 163.529 48.2616 163.929 48.1108C164.328 47.9597 164.528 47.6793 164.528 47.2695C164.528 46.946 164.413 46.6871 164.181 46.493C163.95 46.2773 163.592 46.0939 163.108 45.943C162.645 45.7704 161.866 45.5224 160.772 45.1988C159.489 44.8106 158.478 44.4223 157.742 44.0341C157.027 43.6242 156.48 43.1174 156.101 42.5134C155.743 41.9095 155.564 41.1329 155.564 40.1839C155.564 38.5662 156.185 37.3583 157.427 36.5603C158.689 35.7406 160.394 35.3308 162.54 35.3308C163.592 35.3308 164.676 35.4494 165.791 35.6867C166.927 35.9024 167.801 36.1936 168.411 36.5603V40.281C167.801 39.8712 167.001 39.5368 166.012 39.278C165.045 39.0192 164.097 38.8897 163.171 38.8897C162.308 38.8897 161.635 38.976 161.151 39.1486C160.689 39.3212 160.457 39.6447 160.457 40.1192C160.457 40.529 160.678 40.8418 161.12 41.0575C161.582 41.2732 162.435 41.5428 163.676 41.8664L164.308 42.0281C165.634 42.3948 166.664 42.8046 167.401 43.2576C168.137 43.689 168.653 44.2174 168.948 44.8429C169.263 45.4469 169.421 46.2126 169.421 47.1401C169.421 48.5637 168.821 49.7068 167.622 50.5697C166.423 51.4107 164.686 51.8316 162.414 51.8316Z" fill="#81818B"/>
<path d="M170.523 27.4364H175.289V37.5956C176.005 36.8407 176.815 36.2799 177.72 35.9132C178.625 35.5249 179.593 35.3308 180.624 35.3308C182.686 35.3308 184.222 35.9024 185.232 37.0456C186.263 38.1672 186.779 39.6878 186.779 41.6076V51.3463H182.013V42.1576C182.013 40.1516 181.108 39.1486 179.298 39.1486C178.498 39.1486 177.752 39.3535 177.057 39.7633C176.363 40.1516 175.773 40.734 175.289 41.5104V51.3463H170.523V27.4364Z" fill="#81818B"/>
<path fill-rule="evenodd" clip-rule="evenodd" d="M47.5873 32.0142C47.5873 36.124 44.3372 39.4556 40.3276 39.4556C36.318 39.4556 33.0676 36.124 33.0676 32.0142C33.0676 27.9044 36.318 24.5728 40.3276 24.5728C44.3372 24.5728 47.5873 27.9044 47.5873 32.0142ZM23.4403 38.9148C31.3499 38.3683 38.2433 44.4383 38.8854 52.5628C38.9519 53.4045 38.9487 54.2356 38.8808 55.0504C30.9712 55.5969 24.0778 49.5268 23.4357 41.4024C23.3692 40.5606 23.3724 39.7293 23.4403 38.9148ZM43.9984 54.7659C51.9247 54.1075 57.8463 47.042 57.3135 38.9348C56.5186 38.8651 55.708 38.8618 54.8864 38.93C46.9601 39.5882 41.0383 46.6539 41.5715 54.7611C42.3661 54.831 43.177 54.8341 43.9984 54.7659Z" fill="#81818B"/>
</svg>
