<svg width="183" height="65" viewBox="0 0 183 65" fill="none" xmlns="http://www.w3.org/2000/svg">
<path fill-rule="evenodd" clip-rule="evenodd" d="M29.5053 31.2361C32.2457 27.7339 36.6339 25.4649 41.5798 25.4649C46.5548 25.4649 50.9654 27.7606 53.7024 31.298C53.5859 31.4118 53.4798 31.5298 53.3838 31.6476C52.8824 32.2645 52.5052 33.059 52.203 33.8659C51.5944 35.4887 51.1302 37.6085 50.7004 39.5935L50.6622 39.7719C50.2334 41.7533 49.8348 43.5959 49.3529 44.9638C49.1364 45.5783 48.931 46.0128 48.749 46.291C48.559 46.0105 48.3434 45.5708 48.1152 44.9475C47.5998 43.5403 47.1662 41.6263 46.7067 39.5827L46.6918 39.5157V39.5157C46.2502 37.5527 45.7817 35.4699 45.1976 33.8756C44.9042 33.0747 44.5441 32.2881 44.0732 31.6769C43.611 31.0772 42.8417 30.4003 41.7165 30.4003C40.5984 30.4003 39.8256 31.0698 39.3567 31.6629C38.8767 32.2701 38.5025 33.0534 38.1942 33.8547C37.5733 35.4682 37.0658 37.5789 36.5934 39.5666L36.5446 39.7719C36.0768 41.7409 35.6395 43.5818 35.1432 44.9523C34.9537 45.4757 34.7749 45.8739 34.613 46.1583C34.4548 45.8752 34.2805 45.4797 34.0962 44.9607C33.62 43.6194 33.2028 41.8301 32.7548 39.9083L32.6763 39.5719C32.2121 37.583 31.7085 35.4685 31.0788 33.85C30.766 33.0457 30.3833 32.2584 29.8881 31.6484C29.776 31.5103 29.6486 31.3701 29.5053 31.2361ZM27.8468 33.9253C27.9773 34.1701 28.1154 34.4736 28.2582 34.8406C28.8032 36.2416 29.2649 38.1533 29.7404 40.1905L29.833 40.5875C30.2659 42.4464 30.7163 44.38 31.2467 45.8739C31.5289 46.6684 31.8696 47.4466 32.3077 48.0514C32.7221 48.6235 33.4655 49.3623 34.6086 49.3623C35.7484 49.3623 36.4935 48.627 36.9107 48.0576C37.3527 47.4542 37.699 46.6769 37.9868 45.8818C38.5385 44.3584 39.0084 42.3794 39.458 40.4855V40.4854L39.5268 40.1959C40.0112 38.1574 40.4775 36.2419 41.0186 34.8358C41.2692 34.1843 41.5039 33.7305 41.7082 33.449C41.9018 33.7281 42.123 34.1747 42.3576 34.815C42.8732 36.2222 43.3063 38.1361 43.7659 40.1798L43.781 40.2467C44.2225 42.2098 44.691 44.2926 45.275 45.8867C45.5685 46.6879 45.9286 47.4745 46.3995 48.0855C46.8617 48.6854 47.631 49.3623 48.7559 49.3623C49.8869 49.3623 50.6534 48.6792 51.1101 48.074C51.5739 47.4599 51.9227 46.6707 52.2044 45.8708C52.7459 44.3344 53.1764 42.3408 53.5869 40.4444V40.4443L53.6457 40.169C54.0878 38.1278 54.512 36.2214 55.0359 34.8246C55.1493 34.5208 55.2612 34.2617 55.3677 34.0441C56.1705 35.7921 56.6157 37.7223 56.6157 39.7513C56.6157 47.6413 49.8842 54.0377 41.5798 54.0377C33.2757 54.0377 26.5438 47.6413 26.5438 39.7513C26.5438 37.6762 27.0094 35.7044 27.8468 33.9253ZM41.5798 22.6077C31.6148 22.6077 23.5366 30.2831 23.5366 39.7513C23.5366 49.2194 31.6148 56.8948 41.5798 56.8948C51.5451 56.8948 59.6229 49.2194 59.6229 39.7513C59.6229 30.2831 51.5451 22.6077 41.5798 22.6077ZM41.9236 33.2098C41.9236 33.2101 41.9201 33.2128 41.913 33.2167C41.92 33.2114 41.9236 33.2095 41.9236 33.2098ZM41.5079 33.2117C41.501 33.2077 41.4975 33.2049 41.4975 33.2045C41.4975 33.2042 41.501 33.2062 41.5079 33.2117ZM48.5273 46.5623C48.5273 46.5623 48.5306 46.5592 48.5371 46.5552C48.5306 46.5605 48.5273 46.5627 48.5273 46.5623ZM48.9645 46.5508C48.9715 46.5548 48.9752 46.5574 48.9752 46.5579C48.9752 46.5583 48.9715 46.5561 48.9645 46.5508ZM34.3004 46.5879C34.3004 46.5875 34.3047 46.5835 34.3134 46.5778C34.3048 46.5853 34.3004 46.5884 34.3004 46.5879ZM34.9094 46.5804C34.918 46.5862 34.9223 46.5901 34.9223 46.5906C34.9223 46.591 34.9179 46.5884 34.9094 46.5804Z" fill="#81818B"/>
<path d="M69.5858 49.9007L65.2104 35.6801H69.043L71.638 45.9154L74.6552 35.6801H78.9402L81.9579 45.9154L84.5829 35.6801H88.4154L84.0096 49.9007H79.9965L76.7977 39.2639L73.5994 49.9007H69.5858Z" fill="#81818B"/>
<path d="M94.0388 50.2449C92.7515 50.2449 91.6952 50.0533 90.8704 49.6711C90.0461 49.2698 89.4324 48.7442 89.0297 48.0943C88.6276 47.4444 88.4265 46.7277 88.4265 45.9442C88.4265 44.6254 88.9694 43.5549 90.0556 42.733C91.1418 41.9112 92.7719 41.5002 94.9444 41.5002H98.7464V41.1562C98.7464 40.1813 98.4545 39.4646 97.8713 39.0059C97.288 38.5471 96.5635 38.3178 95.6988 38.3178C94.9139 38.3178 94.2299 38.4993 93.6466 38.8625C93.0633 39.2066 92.7011 39.7226 92.5604 40.4107H88.7882C88.889 39.3786 89.2513 38.4802 89.8745 37.7157C90.5186 36.9512 91.3434 36.3682 92.3488 35.9668C93.3552 35.5463 94.4813 35.3361 95.7287 35.3361C97.8613 35.3361 99.5408 35.8425 100.768 36.8556C101.995 37.8686 102.609 39.3022 102.609 41.1562V49.9007H99.3192L98.9575 47.6072C98.5149 48.3717 97.8912 49.0022 97.0869 49.4995C96.302 49.9963 95.2862 50.2449 94.0388 50.2449ZM94.9139 47.3776C96.0206 47.3776 96.8753 47.0334 97.4786 46.3455C98.1023 45.6575 98.495 44.8067 98.6561 43.7938H95.3665C94.3406 43.7938 93.6067 43.9754 93.1636 44.3386C92.7215 44.6824 92.5 45.1129 92.5 45.6287C92.5 46.1831 92.7215 46.6131 93.1636 46.9188C93.6067 47.2245 94.1894 47.3776 94.9139 47.3776Z" fill="#81818B"/>
<path d="M108.689 49.9007L103.197 35.6801H107.24L111.042 46.4317L114.845 35.6801H118.888L113.366 49.9007H108.689Z" fill="#81818B"/>
<path d="M126.652 50.2449C125.144 50.2449 123.806 49.9388 122.639 49.3273C121.473 48.7155 120.557 47.8554 119.893 46.7467C119.229 45.6385 118.898 44.3577 118.898 42.905C118.898 41.4333 119.22 40.124 119.863 38.9772C120.527 37.8304 121.432 36.9416 122.579 36.3108C123.745 35.661 125.113 35.3361 126.683 35.3361C128.151 35.3361 129.449 35.6419 130.576 36.2535C131.702 36.8651 132.577 37.7061 133.201 38.7765C133.844 39.8277 134.167 41.0032 134.167 42.303C134.167 42.5132 134.156 42.733 134.136 42.9624C134.136 43.1918 134.126 43.4307 134.106 43.6791H122.73C122.81 44.7877 123.213 45.6575 123.937 46.2884C124.681 46.9188 125.576 47.2343 126.623 47.2343C127.407 47.2343 128.061 47.0719 128.584 46.7467C129.127 46.403 129.529 45.9632 129.791 45.4279H133.713C133.432 46.3264 132.959 47.1485 132.295 47.8939C131.651 48.6199 130.847 49.1933 129.881 49.614C128.936 50.0343 127.859 50.2449 126.652 50.2449ZM126.683 38.3178C125.738 38.3178 124.902 38.5758 124.178 39.0919C123.454 39.5888 122.991 40.3534 122.79 41.3855H130.243C130.183 40.4489 129.821 39.7035 129.157 39.1492C128.493 38.5949 127.669 38.3178 126.683 38.3178Z" fill="#81818B"/>
<path d="M136.208 49.9007V29.2578H140.07V49.9007H136.208Z" fill="#81818B"/>
<path d="M150.081 50.2449C148.573 50.2449 147.235 49.9388 146.068 49.3273C144.902 48.7155 143.987 47.8554 143.323 46.7467C142.658 45.6385 142.327 44.3577 142.327 42.905C142.327 41.4333 142.649 40.124 143.292 38.9772C143.956 37.8304 144.861 36.9416 146.008 36.3108C147.175 35.661 148.543 35.3361 150.112 35.3361C151.58 35.3361 152.878 35.6419 154.005 36.2535C155.131 36.8651 156.007 37.7061 156.63 38.7765C157.273 39.8277 157.596 41.0032 157.596 42.303C157.596 42.5132 157.585 42.733 157.565 42.9624C157.565 43.1918 157.555 43.4307 157.535 43.6791H146.159C146.239 44.7877 146.642 45.6575 147.366 46.2884C148.11 46.9188 149.006 47.2343 150.052 47.2343C150.836 47.2343 151.49 47.0719 152.013 46.7467C152.556 46.403 152.958 45.9632 153.22 45.4279H157.143C156.861 46.3264 156.388 47.1485 155.725 47.8939C155.08 48.6199 154.276 49.1933 153.31 49.614C152.365 50.0343 151.289 50.2449 150.081 50.2449ZM150.112 38.3178C149.167 38.3178 148.332 38.5758 147.607 39.0919C146.883 39.5888 146.421 40.3534 146.219 41.3855H153.672C153.612 40.4489 153.25 39.7035 152.586 39.1492C151.922 38.5949 151.098 38.3178 150.112 38.3178Z" fill="#81818B"/>
<path d="M165.823 50.2449C164.495 50.2449 163.328 50.044 162.323 49.6428C161.316 49.222 160.512 48.6487 159.908 47.9222C159.305 47.1962 158.943 46.3552 158.822 45.3996H162.714C162.835 45.9535 163.158 46.4317 163.681 46.833C164.223 47.2152 164.917 47.4064 165.762 47.4064C166.607 47.4064 167.221 47.244 167.603 46.9188C168.005 46.5941 168.207 46.2212 168.207 45.8008C168.207 45.189 167.925 44.778 167.362 44.5678C166.798 44.3386 166.014 44.1188 165.008 43.9085C164.365 43.7747 163.711 43.6123 163.047 43.4211C162.383 43.23 161.77 42.991 161.206 42.7044C160.663 42.3985 160.22 42.0163 159.878 41.5575C159.536 41.0797 159.366 40.4967 159.366 39.8086C159.366 38.5471 159.888 37.4864 160.935 36.6262C162.001 35.7661 163.489 35.3361 165.4 35.3361C167.171 35.3361 168.579 35.7279 169.625 36.5115C170.691 37.2952 171.325 38.3751 171.526 39.7513H167.875C167.653 38.7001 166.818 38.1744 165.37 38.1744C164.646 38.1744 164.083 38.3082 163.681 38.5758C163.298 38.8434 163.107 39.1779 163.107 39.5793C163.107 39.9998 163.399 40.3343 163.982 40.5828C164.566 40.8312 165.34 41.0606 166.306 41.2709C167.351 41.5002 168.307 41.7582 169.172 42.0449C170.057 42.3125 170.761 42.7235 171.285 43.2778C171.807 43.8129 172.069 44.5869 172.069 45.6C172.089 46.4795 171.847 47.2723 171.345 47.9797C170.842 48.6867 170.118 49.2411 169.172 49.6428C168.227 50.044 167.11 50.2449 165.823 50.2449Z" fill="#81818B"/>
<path d="M180.469 50.2449C179.142 50.2449 177.975 50.044 176.969 49.6428C175.963 49.222 175.159 48.6487 174.555 47.9222C173.952 47.1962 173.589 46.3552 173.469 45.3996H177.361C177.482 45.9535 177.804 46.4317 178.327 46.833C178.87 47.2152 179.564 47.4064 180.409 47.4064C181.254 47.4064 181.868 47.244 182.25 46.9188C182.652 46.5941 182.853 46.2212 182.853 45.8008C182.853 45.189 182.572 44.778 182.008 44.5678C181.445 44.3386 180.661 44.1188 179.655 43.9085C179.011 43.7747 178.357 43.6123 177.693 43.4211C177.03 43.23 176.416 42.991 175.853 42.7044C175.31 42.3985 174.867 42.0163 174.525 41.5575C174.183 41.0797 174.012 40.4967 174.012 39.8086C174.012 38.5471 174.535 37.4864 175.581 36.6262C176.647 35.7661 178.136 35.3361 180.047 35.3361C181.817 35.3361 183.225 35.7279 184.272 36.5115C185.337 37.2952 185.971 38.3751 186.173 39.7513H182.521C182.3 38.7001 181.465 38.1744 180.017 38.1744C179.292 38.1744 178.729 38.3082 178.327 38.5758C177.945 38.8434 177.754 39.1779 177.754 39.5793C177.754 39.9998 178.045 40.3343 178.629 40.5828C179.212 40.8312 179.986 41.0606 180.952 41.2709C181.998 41.5002 182.954 41.7582 183.819 42.0449C184.704 42.3125 185.408 42.7235 185.931 43.2778C186.454 43.8129 186.716 44.5869 186.716 45.6C186.736 46.4795 186.494 47.2723 185.991 47.9797C185.488 48.6867 184.764 49.2411 183.819 49.6428C182.873 50.044 181.757 50.2449 180.469 50.2449Z" fill="#81818B"/>
</svg>
