<svg width="77" height="76" viewBox="0 0 77 76" fill="none" xmlns="http://www.w3.org/2000/svg">
<g clip-path="url(#clip0_1_228)">
<g clip-path="url(#clip1_1_228)">
<path opacity="0.06" d="M55.4181 0.265625H21.6422C10.0945 0.265625 0.733276 9.62687 0.733276 21.1745V54.9505C0.733276 66.4981 10.0945 75.8594 21.6422 75.8594H55.4181C66.9658 75.8594 76.327 66.4981 76.327 54.9505V21.1745C76.327 9.62687 66.9658 0.265625 55.4181 0.265625Z" fill="#0089FF"/>
<path d="M38.5302 63.8029C52.7462 63.8029 64.2706 52.2786 64.2706 38.0625C64.2706 23.8465 52.7462 12.3221 38.5302 12.3221C24.3141 12.3221 12.7898 23.8465 12.7898 38.0625C12.7898 52.2786 24.3141 63.8029 38.5302 63.8029Z" fill="#1B76FF"/>
<path fill-rule="evenodd" clip-rule="evenodd" d="M25.1204 32.9688H29.7662V51.1299H25.1204C24.4209 51.1299 23.8538 50.5898 23.8538 49.9236V34.175C23.8538 33.5088 24.4209 32.9688 25.1204 32.9688Z" stroke="white" stroke-width="1.60838" stroke-linecap="round" stroke-linejoin="round"/>
<path fill-rule="evenodd" clip-rule="evenodd" d="M51.7941 47.7297C51.5 49.9931 49.9878 51.1299 47.2993 51.1299H33.2317C31.3204 51.1299 29.7661 49.667 29.7661 47.8681V32.9905C34.2274 32.5556 36.4579 30.9982 36.4579 26.8104V24.8035C36.4579 22.6883 38.2584 20.9735 40.4794 20.9735C41.3258 20.9735 42.1506 21.2278 42.8364 21.7003C43.7816 22.3526 44.3839 23.5882 44.3839 25.3673V31.1765C44.3839 31.6707 45.2204 32.0759 46.0569 32.0759H50.5443C52.4347 32.0759 53.968 33.4992 54.01 35.2685C54.0381 36.448 53.2994 40.0991 51.7941 47.7297Z" stroke="white" stroke-width="1.60838" stroke-linecap="round" stroke-linejoin="round"/>
</g>
</g>
<defs>
<clipPath id="clip0_1_228">
<rect width="75.5938" height="75.5938" fill="white" transform="translate(0.733276 0.265625)"/>
</clipPath>
<clipPath id="clip1_1_228">
<rect width="75.5938" height="75.5938" fill="white" transform="translate(0.733276 0.265625)"/>
</clipPath>
</defs>
</svg>
