<svg width="76" height="76" viewBox="0 0 76 76" fill="none" xmlns="http://www.w3.org/2000/svg">
<g clip-path="url(#clip0_1_241)">
<g clip-path="url(#clip1_1_241)">
<path opacity="0.06" d="M54.7574 0.265625H20.9814C9.43375 0.265625 0.0725098 9.62687 0.0725098 21.1745V54.9505C0.0725098 66.4981 9.43375 75.8594 20.9814 75.8594H54.7574C66.305 75.8594 75.6663 66.4981 75.6663 54.9505V21.1745C75.6663 9.62687 66.305 0.265625 54.7574 0.265625Z" fill="#FF6F35"/>
<path d="M37.8694 63.8029C52.0855 63.8029 63.6098 52.2786 63.6098 38.0625C63.6098 23.8465 52.0855 12.3221 37.8694 12.3221C23.6534 12.3221 12.129 23.8465 12.129 38.0625C12.129 52.2786 23.6534 63.8029 37.8694 63.8029Z" fill="#FFCD1D"/>
<path d="M37.8694 21.8447V54.2804" stroke="white" stroke-width="2.41257" stroke-linecap="round" stroke-linejoin="round"/>
<path d="M45.2411 27.7421H34.1836C32.815 27.7421 31.5025 28.2857 30.5347 29.2535C29.5669 30.2211 29.0233 31.5337 29.0233 32.9022C29.0233 34.2708 29.5669 35.5833 30.5347 36.5511C31.5025 37.5188 32.815 38.0625 34.1836 38.0625H41.5552C42.9238 38.0625 44.2363 38.6061 45.2041 39.5739C46.1718 40.5415 46.7155 41.8541 46.7155 43.2227C46.7155 44.5913 46.1718 45.9038 45.2041 46.8715C44.2363 47.8392 42.9238 48.3829 41.5552 48.3829H29.0233" stroke="white" stroke-width="2.41257" stroke-linecap="round" stroke-linejoin="round"/>
</g>
</g>
<defs>
<clipPath id="clip0_1_241">
<rect width="75.5938" height="75.5938" fill="white" transform="translate(0.0725098 0.265625)"/>
</clipPath>
<clipPath id="clip1_1_241">
<rect width="75.5938" height="75.5938" fill="white" transform="translate(0.0725098 0.265625)"/>
</clipPath>
</defs>
</svg>
