<svg width="76" height="77" viewBox="0 0 76 77" fill="none" xmlns="http://www.w3.org/2000/svg">
<g clip-path="url(#clip0_1_254)">
<path opacity="0.06" d="M54.7574 0.859375H20.9814C9.43375 0.859375 0.0725098 10.2206 0.0725098 21.7683V55.5442C0.0725098 67.0919 9.43375 76.4531 20.9814 76.4531H54.7574C66.305 76.4531 75.6663 67.0919 75.6663 55.5442V21.7683C75.6663 10.2206 66.305 0.859375 54.7574 0.859375Z" fill="#5CC97B"/>
<path d="M37.8694 64.3967C52.0855 64.3967 63.6098 52.8723 63.6098 38.6563C63.6098 24.4402 52.0855 12.9159 37.8694 12.9159C23.6534 12.9159 12.129 24.4402 12.129 38.6563C12.129 52.8723 23.6534 64.3967 37.8694 64.3967Z" fill="#5CC97B"/>
<path fill-rule="evenodd" clip-rule="evenodd" d="M40.6264 45.0292C38.7834 46.2479 36.5537 46.9189 34.1779 46.8208C28.1687 46.5726 23.4983 41.4995 23.7465 35.4901C23.9947 29.4807 29.0675 24.8111 35.0766 25.0593C41.0848 25.3073 45.7563 30.3794 45.5081 36.3889C45.4206 38.5072 44.7335 40.4592 43.6172 42.088L50.9538 49.2115C51.859 50.1929 51.8266 51.7099 50.8966 52.6499L50.8538 52.6893L50.8086 52.7284C49.7976 53.5779 48.283 53.4868 47.3787 52.5046L40.6264 45.0292ZM34.2816 44.309C29.6594 44.1181 26.0666 40.2157 26.2575 35.5935C26.4484 30.9713 30.3507 27.3785 34.973 27.5694C39.5952 27.7603 43.1881 31.6626 42.9972 36.2848C42.8063 40.9071 38.9039 44.4999 34.2816 44.309Z" fill="white"/>
</g>
<defs>
<clipPath id="clip0_1_254">
<rect width="75.5938" height="75.5938" fill="white" transform="translate(0.0725098 0.859375)"/>
</clipPath>
</defs>
</svg>
