<svg width="124" height="19" viewBox="0 0 124 19" fill="none" xmlns="http://www.w3.org/2000/svg">
<g clip-path="url(#clip0_77_4)">
<path fill-rule="evenodd" clip-rule="evenodd" d="M10.4157 14.0551L4.64803 17.8345L6.46011 11.1812L1.08344 6.86377L7.971 6.53118L10.4157 0.0834961L12.8604 6.53118L19.7479 6.86377L14.3713 11.1812L16.1833 17.8345L10.4157 14.0551Z" fill="#FFC54F"/>
</g>
<g clip-path="url(#clip1_77_4)">
<path fill-rule="evenodd" clip-rule="evenodd" d="M36.083 14.0551L30.3154 17.8345L32.1275 11.1812L26.7508 6.86377L33.6384 6.53118L36.083 0.0834961L38.5277 6.53118L45.4153 6.86377L40.0386 11.1812L41.8507 17.8345L36.083 14.0551Z" fill="#FFC54F"/>
</g>
<g clip-path="url(#clip2_77_4)">
<path fill-rule="evenodd" clip-rule="evenodd" d="M61.7503 14.0551L55.9827 17.8345L57.7948 11.1812L52.4181 6.86377L59.3057 6.53118L61.7503 0.0834961L64.195 6.53118L71.0826 6.86377L65.7059 11.1812L67.518 17.8345L61.7503 14.0551Z" fill="#FFC54F"/>
</g>
<g clip-path="url(#clip3_77_4)">
<path fill-rule="evenodd" clip-rule="evenodd" d="M87.4176 14.0551L81.65 17.8345L83.4621 11.1812L78.0854 6.86377L84.973 6.53118L87.4176 0.0834961L89.8623 6.53118L96.7499 6.86377L91.3732 11.1812L93.1853 17.8345L87.4176 14.0551Z" fill="#FFC54F"/>
</g>
<g clip-path="url(#clip4_77_4)">
<path fill-rule="evenodd" clip-rule="evenodd" d="M113.085 14.0551L107.317 17.8345L109.129 11.1812L103.753 6.86377L110.64 6.53118L113.085 0.0834961L115.53 6.53118L122.417 6.86377L117.041 11.1812L118.853 17.8345L113.085 14.0551Z" fill="#FFC54F"/>
</g>
<defs>
<clipPath id="clip0_77_4">
<rect width="19.625" height="17.9896" fill="white" transform="translate(0.603149 0.0834961)"/>
</clipPath>
<clipPath id="clip1_77_4">
<rect width="19.625" height="17.9896" fill="white" transform="translate(26.2705 0.0834961)"/>
</clipPath>
<clipPath id="clip2_77_4">
<rect width="19.625" height="17.9896" fill="white" transform="translate(51.9378 0.0834961)"/>
</clipPath>
<clipPath id="clip3_77_4">
<rect width="19.625" height="17.9896" fill="white" transform="translate(77.6051 0.0834961)"/>
</clipPath>
<clipPath id="clip4_77_4">
<rect width="19.625" height="17.9896" fill="white" transform="translate(103.272 0.0834961)"/>
</clipPath>
</defs>
</svg>
